<?xml version="1.0" encoding="utf-8"?>
<!-- Generator: Adobe Illustrator 18.1.0, SVG Export Plug-In . SVG Version: 6.00 Build 0)  -->
<svg version="1.1" id="Layer_1" xmlns="http://www.w3.org/2000/svg" xmlns:xlink="http://www.w3.org/1999/xlink" x="0px" y="0px"
	 viewBox="0 0 600 600" enable-background="new 0 0 600 600" xml:space="preserve">
<g>
	<path fill="#010101" d="M422.5,462.7c-18.3,11.8-38.4,21-60.4,27.8s-45.1,10.1-69.5,10.1c-32.9,0-63.4-5.8-91.5-17.4
		s-52.3-27.3-72.6-47.3c-20.3-19.9-36.3-43.3-47.9-70.1c-11.6-26.8-17.4-55.5-17.4-86v-1.2c0-30.5,5.8-59.3,17.4-86.3
		c11.6-27,27.8-50.6,48.5-70.8c20.7-20.1,45.1-36,73.2-47.6c28.1-11.6,58.6-17.4,91.5-17.4c32.9,0,63.4,5.8,91.5,17.4
		c28.1,11.6,52.3,27.4,72.6,47.3c20.3,19.9,36.3,43.3,47.9,70.1c11.6,26.8,17.4,55.5,17.4,86v1.2c0,22.8-3.3,44.5-9.8,65.3
		c-6.5,20.7-15.9,39.9-28.1,57.3l43.9,37.2l-59.8,66.5L422.5,462.7z M293.6,395.6c15.1,0,29.6-2.6,43.5-7.9l-59.2-50.6l59.8-67.1
		l58,52.5c4.5-12.6,6.7-26.4,6.7-41.5v-1.2c0-15.5-2.6-30.2-7.9-44.2c-5.3-14-12.8-26.4-22.6-37.2c-9.8-10.8-21.5-19.3-35.1-25.6
		c-13.6-6.3-28.6-9.5-44.8-9.5c-16.3,0-31,3.2-44.2,9.5c-13.2,6.3-24.6,14.7-34.2,25.3c-9.6,10.6-16.9,22.8-22,36.6
		c-5.1,13.8-7.6,28.5-7.6,43.9v1.2c0,15.5,2.6,30.2,8,44.2c5.3,14,12.8,26.3,22.4,36.9c9.6,10.6,21.1,19,34.6,25.3
		C262.4,392.5,277.3,395.6,293.6,395.6z"/>
</g>
</svg>
